<mxfile host="Electron" modified="2024-03-06T10:30:24.169Z" agent="Mozilla/5.0 (X11; Linux x86_64) AppleWebKit/537.36 (KHTML, like Gecko) draw.io/23.1.5 Chrome/120.0.6099.109 Electron/28.1.0 Safari/537.36" etag="rKfAcRvwea8DFRsz6xx5" version="23.1.5" type="device">
  <diagram name="Page-1" id="dWOMPvJtwN1P80TV7VJP">
    <mxGraphModel dx="1084" dy="1719" grid="1" gridSize="10" guides="1" tooltips="1" connect="1" arrows="1" fold="1" page="1" pageScale="1" pageWidth="1169" pageHeight="827" math="0" shadow="0">
      <root>
        <mxCell id="0" />
        <mxCell id="1" parent="0" />
        <mxCell id="eP0V_-2u7nTpgkbq4tRV-4" value="" style="shape=mxgraph.cisco.wireless.satellite_dish;html=1;pointerEvents=1;dashed=0;fillColor=#036897;strokeColor=#ffffff;strokeWidth=2;verticalLabelPosition=bottom;verticalAlign=top;align=center;outlineConnect=0;rotation=45;" vertex="1" parent="1">
          <mxGeometry x="96" y="425" width="99" height="74" as="geometry" />
        </mxCell>
        <mxCell id="eP0V_-2u7nTpgkbq4tRV-5" value="" style="fontColor=#0066CC;verticalAlign=top;verticalLabelPosition=bottom;labelPosition=center;align=center;html=1;outlineConnect=0;fillColor=#CCCCCC;strokeColor=#6881B3;gradientColor=none;gradientDirection=north;strokeWidth=2;shape=mxgraph.networks.satellite;" vertex="1" parent="1">
          <mxGeometry x="680" y="170" width="120" height="120" as="geometry" />
        </mxCell>
        <mxCell id="eP0V_-2u7nTpgkbq4tRV-6" value="" style="fontColor=#0066CC;verticalAlign=top;verticalLabelPosition=bottom;labelPosition=center;align=center;html=1;outlineConnect=0;fillColor=#CCCCCC;strokeColor=#6881B3;gradientColor=none;gradientDirection=north;strokeWidth=2;shape=mxgraph.networks.satellite;rotation=-45;" vertex="1" parent="1">
          <mxGeometry x="410" y="90" width="120" height="120" as="geometry" />
        </mxCell>
        <mxCell id="eP0V_-2u7nTpgkbq4tRV-7" value="" style="fontColor=#0066CC;verticalAlign=top;verticalLabelPosition=bottom;labelPosition=center;align=center;html=1;outlineConnect=0;fillColor=#CCCCCC;strokeColor=#6881B3;gradientColor=none;gradientDirection=north;strokeWidth=2;shape=mxgraph.networks.satellite;rotation=-90;" vertex="1" parent="1">
          <mxGeometry x="160" y="180" width="120" height="120" as="geometry" />
        </mxCell>
        <mxCell id="eP0V_-2u7nTpgkbq4tRV-11" value="" style="shape=or;whiteSpace=wrap;html=1;rotation=-90;strokeColor=none;fillColor=#a0522d;fontColor=#ffffff;" vertex="1" parent="1">
          <mxGeometry x="70" y="465" width="60" height="100" as="geometry" />
        </mxCell>
        <mxCell id="eP0V_-2u7nTpgkbq4tRV-13" value="&lt;span style=&quot;font-size: 20px;&quot;&gt;&lt;b&gt;GNSS&lt;/b&gt;&lt;/span&gt;" style="whiteSpace=wrap;html=1;aspect=fixed;strokeColor=#314354;fillColor=#000000;fontColor=#ffffff;" vertex="1" parent="1">
          <mxGeometry x="520" y="550" width="60" height="60" as="geometry" />
        </mxCell>
        <mxCell id="eP0V_-2u7nTpgkbq4tRV-14" value="" style="rounded=0;whiteSpace=wrap;html=1;fillColor=#0050ef;fontColor=#ffffff;strokeColor=none;" vertex="1" parent="1">
          <mxGeometry x="398" y="630" width="562" height="50" as="geometry" />
        </mxCell>
        <mxCell id="eP0V_-2u7nTpgkbq4tRV-15" value="" style="rounded=0;whiteSpace=wrap;html=1;strokeColor=none;fillColor=#a0522d;fontColor=#ffffff;" vertex="1" parent="1">
          <mxGeometry x="50" y="540" width="350" height="140" as="geometry" />
        </mxCell>
        <mxCell id="eP0V_-2u7nTpgkbq4tRV-16" value="" style="endArrow=none;dashed=1;html=1;dashPattern=1 3;strokeWidth=4;rounded=0;entryX=0.07;entryY=0.93;entryDx=0;entryDy=0;entryPerimeter=0;exitX=0.51;exitY=0;exitDx=0;exitDy=0;exitPerimeter=0;strokeColor=#036897;" edge="1" parent="1" source="eP0V_-2u7nTpgkbq4tRV-4" target="eP0V_-2u7nTpgkbq4tRV-6">
          <mxGeometry width="50" height="50" relative="1" as="geometry">
            <mxPoint x="470" y="550" as="sourcePoint" />
            <mxPoint x="520" y="500" as="targetPoint" />
          </mxGeometry>
        </mxCell>
        <mxCell id="eP0V_-2u7nTpgkbq4tRV-17" value="" style="endArrow=none;dashed=1;html=1;dashPattern=1 3;strokeWidth=4;rounded=0;entryX=0.07;entryY=0.93;entryDx=0;entryDy=0;entryPerimeter=0;exitX=0.51;exitY=0;exitDx=0;exitDy=0;exitPerimeter=0;strokeColor=#036897;" edge="1" parent="1" source="eP0V_-2u7nTpgkbq4tRV-4" target="eP0V_-2u7nTpgkbq4tRV-5">
          <mxGeometry width="50" height="50" relative="1" as="geometry">
            <mxPoint x="182" y="522" as="sourcePoint" />
            <mxPoint x="498" y="322" as="targetPoint" />
          </mxGeometry>
        </mxCell>
        <mxCell id="eP0V_-2u7nTpgkbq4tRV-18" value="" style="endArrow=none;dashed=1;html=1;dashPattern=1 3;strokeWidth=4;rounded=0;entryX=0.07;entryY=0.93;entryDx=0;entryDy=0;entryPerimeter=0;exitX=0.51;exitY=0;exitDx=0;exitDy=0;exitPerimeter=0;strokeColor=#036897;" edge="1" parent="1" source="eP0V_-2u7nTpgkbq4tRV-4" target="eP0V_-2u7nTpgkbq4tRV-7">
          <mxGeometry width="50" height="50" relative="1" as="geometry">
            <mxPoint x="192" y="532" as="sourcePoint" />
            <mxPoint x="508" y="332" as="targetPoint" />
          </mxGeometry>
        </mxCell>
        <mxCell id="eP0V_-2u7nTpgkbq4tRV-19" value="" style="endArrow=none;dashed=1;html=1;dashPattern=1 3;strokeWidth=2;rounded=0;entryX=0.07;entryY=0.93;entryDx=0;entryDy=0;entryPerimeter=0;exitX=0.5;exitY=0;exitDx=0;exitDy=0;" edge="1" parent="1" source="eP0V_-2u7nTpgkbq4tRV-13" target="eP0V_-2u7nTpgkbq4tRV-5">
          <mxGeometry width="50" height="50" relative="1" as="geometry">
            <mxPoint x="630" y="550" as="sourcePoint" />
            <mxPoint x="680" y="500" as="targetPoint" />
          </mxGeometry>
        </mxCell>
        <mxCell id="eP0V_-2u7nTpgkbq4tRV-20" value="" style="endArrow=none;dashed=1;html=1;dashPattern=1 3;strokeWidth=2;rounded=0;entryX=0.07;entryY=0.93;entryDx=0;entryDy=0;entryPerimeter=0;exitX=0.5;exitY=0;exitDx=0;exitDy=0;" edge="1" parent="1" source="eP0V_-2u7nTpgkbq4tRV-13" target="eP0V_-2u7nTpgkbq4tRV-6">
          <mxGeometry width="50" height="50" relative="1" as="geometry">
            <mxPoint x="202" y="542" as="sourcePoint" />
            <mxPoint x="518" y="342" as="targetPoint" />
          </mxGeometry>
        </mxCell>
        <mxCell id="eP0V_-2u7nTpgkbq4tRV-22" value="" style="endArrow=none;dashed=1;html=1;dashPattern=1 3;strokeWidth=2;rounded=0;entryX=0.07;entryY=0.93;entryDx=0;entryDy=0;entryPerimeter=0;exitX=0.5;exitY=0;exitDx=0;exitDy=0;" edge="1" parent="1" source="eP0V_-2u7nTpgkbq4tRV-13" target="eP0V_-2u7nTpgkbq4tRV-7">
          <mxGeometry width="50" height="50" relative="1" as="geometry">
            <mxPoint x="182" y="522" as="sourcePoint" />
            <mxPoint x="498" y="322" as="targetPoint" />
          </mxGeometry>
        </mxCell>
        <mxCell id="eP0V_-2u7nTpgkbq4tRV-24" value="&lt;span style=&quot;font-size: 20px;&quot;&gt;&lt;b&gt;GNSS&lt;/b&gt;&lt;/span&gt;" style="whiteSpace=wrap;html=1;aspect=fixed;strokeColor=#314354;fillColor=#000000;fontColor=#ffffff;strokeWidth=4;" vertex="1" parent="1">
          <mxGeometry x="820" y="550" width="60" height="60" as="geometry" />
        </mxCell>
        <mxCell id="eP0V_-2u7nTpgkbq4tRV-25" value="" style="endArrow=none;dashed=1;html=1;dashPattern=1 3;strokeWidth=2;rounded=0;entryX=0.07;entryY=0.93;entryDx=0;entryDy=0;entryPerimeter=0;exitX=0.5;exitY=0;exitDx=0;exitDy=0;" edge="1" parent="1" source="eP0V_-2u7nTpgkbq4tRV-24" target="eP0V_-2u7nTpgkbq4tRV-7">
          <mxGeometry width="50" height="50" relative="1" as="geometry">
            <mxPoint x="182" y="522" as="sourcePoint" />
            <mxPoint x="498" y="322" as="targetPoint" />
          </mxGeometry>
        </mxCell>
        <mxCell id="eP0V_-2u7nTpgkbq4tRV-26" value="" style="endArrow=none;dashed=1;html=1;dashPattern=1 3;strokeWidth=2;rounded=0;entryX=0.07;entryY=0.93;entryDx=0;entryDy=0;entryPerimeter=0;exitX=0.5;exitY=0;exitDx=0;exitDy=0;" edge="1" parent="1" source="eP0V_-2u7nTpgkbq4tRV-24" target="eP0V_-2u7nTpgkbq4tRV-5">
          <mxGeometry width="50" height="50" relative="1" as="geometry">
            <mxPoint x="192" y="532" as="sourcePoint" />
            <mxPoint x="508" y="332" as="targetPoint" />
          </mxGeometry>
        </mxCell>
        <mxCell id="eP0V_-2u7nTpgkbq4tRV-27" value="" style="endArrow=none;dashed=1;html=1;dashPattern=1 3;strokeWidth=2;rounded=0;entryX=0.07;entryY=0.93;entryDx=0;entryDy=0;entryPerimeter=0;exitX=0.5;exitY=0;exitDx=0;exitDy=0;" edge="1" parent="1" source="eP0V_-2u7nTpgkbq4tRV-24" target="eP0V_-2u7nTpgkbq4tRV-7">
          <mxGeometry width="50" height="50" relative="1" as="geometry">
            <mxPoint x="202" y="542" as="sourcePoint" />
            <mxPoint x="518" y="342" as="targetPoint" />
          </mxGeometry>
        </mxCell>
        <mxCell id="eP0V_-2u7nTpgkbq4tRV-28" value="" style="endArrow=none;dashed=1;html=1;dashPattern=1 3;strokeWidth=2;rounded=0;entryX=0.07;entryY=0.93;entryDx=0;entryDy=0;entryPerimeter=0;exitX=0.5;exitY=0;exitDx=0;exitDy=0;" edge="1" parent="1" source="eP0V_-2u7nTpgkbq4tRV-24" target="eP0V_-2u7nTpgkbq4tRV-6">
          <mxGeometry width="50" height="50" relative="1" as="geometry">
            <mxPoint x="860" y="560" as="sourcePoint" />
            <mxPoint x="202" y="322" as="targetPoint" />
          </mxGeometry>
        </mxCell>
        <mxCell id="eP0V_-2u7nTpgkbq4tRV-29" value="&lt;b&gt;&lt;font style=&quot;font-size: 20px;&quot;&gt;Base RTK&lt;/font&gt;&lt;/b&gt;" style="text;html=1;align=center;verticalAlign=middle;whiteSpace=wrap;rounded=0;" vertex="1" parent="1">
          <mxGeometry x="70" y="375" width="100" height="30" as="geometry" />
        </mxCell>
        <mxCell id="eP0V_-2u7nTpgkbq4tRV-30" value="" style="shape=or;whiteSpace=wrap;html=1;rotation=90;fillColor=#647687;fontColor=#ffffff;strokeColor=#314354;" vertex="1" parent="1">
          <mxGeometry x="676" y="414" width="50" height="436.88" as="geometry" />
        </mxCell>
        <mxCell id="eP0V_-2u7nTpgkbq4tRV-31" value="IMU" style="whiteSpace=wrap;html=1;aspect=fixed;fillColor=#e51400;fontColor=#ffffff;strokeColor=none;fontStyle=1;fontSize=20;" vertex="1" parent="1">
          <mxGeometry x="661" y="528" width="80" height="80" as="geometry" />
        </mxCell>
        <mxCell id="eP0V_-2u7nTpgkbq4tRV-32" value="" style="endArrow=none;dashed=1;html=1;dashPattern=1 3;strokeWidth=4;rounded=0;entryX=0.5;entryY=0;entryDx=0;entryDy=0;exitX=0.51;exitY=0;exitDx=0;exitDy=0;exitPerimeter=0;fillColor=#e51400;strokeColor=#B20000;" edge="1" parent="1" source="eP0V_-2u7nTpgkbq4tRV-4" target="eP0V_-2u7nTpgkbq4tRV-31">
          <mxGeometry width="50" height="50" relative="1" as="geometry">
            <mxPoint x="182" y="522" as="sourcePoint" />
            <mxPoint x="698" y="322" as="targetPoint" />
          </mxGeometry>
        </mxCell>
        <mxCell id="eP0V_-2u7nTpgkbq4tRV-33" value="&lt;span style=&quot;font-size: 20px;&quot;&gt;&lt;b&gt;GNSS Satellites&lt;/b&gt;&lt;/span&gt;" style="text;html=1;align=center;verticalAlign=middle;whiteSpace=wrap;rounded=0;" vertex="1" parent="1">
          <mxGeometry x="531" y="190" width="130" height="30" as="geometry" />
        </mxCell>
        <mxCell id="eP0V_-2u7nTpgkbq4tRV-34" value="&lt;span style=&quot;font-size: 20px;&quot;&gt;&lt;b&gt;&lt;font color=&quot;#cc0000&quot;&gt;Données de Corrections&lt;/font&gt;&lt;/b&gt;&lt;/span&gt;" style="text;html=1;align=center;verticalAlign=middle;whiteSpace=wrap;rounded=0;" vertex="1" parent="1">
          <mxGeometry x="250" y="480" width="130" height="30" as="geometry" />
        </mxCell>
        <mxCell id="eP0V_-2u7nTpgkbq4tRV-37" value="" style="endArrow=classic;html=1;rounded=0;entryX=0;entryY=0.5;entryDx=0;entryDy=0;exitX=1;exitY=0.5;exitDx=0;exitDy=0;strokeColor=#CC0000;strokeWidth=3;" edge="1" parent="1" source="eP0V_-2u7nTpgkbq4tRV-13" target="eP0V_-2u7nTpgkbq4tRV-31">
          <mxGeometry width="50" height="50" relative="1" as="geometry">
            <mxPoint x="470" y="780" as="sourcePoint" />
            <mxPoint x="520" y="730" as="targetPoint" />
          </mxGeometry>
        </mxCell>
        <mxCell id="eP0V_-2u7nTpgkbq4tRV-38" value="" style="endArrow=classic;html=1;rounded=0;entryX=1;entryY=0.5;entryDx=0;entryDy=0;exitX=0;exitY=0.5;exitDx=0;exitDy=0;strokeColor=#CC0000;strokeWidth=3;" edge="1" parent="1" source="eP0V_-2u7nTpgkbq4tRV-24" target="eP0V_-2u7nTpgkbq4tRV-31">
          <mxGeometry width="50" height="50" relative="1" as="geometry">
            <mxPoint x="590" y="590" as="sourcePoint" />
            <mxPoint x="671" y="578" as="targetPoint" />
          </mxGeometry>
        </mxCell>
      </root>
    </mxGraphModel>
  </diagram>
</mxfile>
